<svg id="Bold" xmlns="http://www.w3.org/2000/svg" viewBox="0 0 24 24"><title>darth-vader</title><path d="M22.533,18.4C21.106,17.307,17.841,15.48,12,15.48S2.894,17.307,1.467,18.4A2.466,2.466,0,0,0,.5,20.373V23.48a.5.5,0,0,0,.5.5H6.25a.25.25,0,0,0,.25-.25V21.98A1.5,1.5,0,0,1,8,20.48h8a1.5,1.5,0,0,1,1.5,1.5v1.75a.25.25,0,0,0,.25.25H23a.5.5,0,0,0,.5-.5V20.373A2.466,2.466,0,0,0,22.533,18.4Z"/><circle cx="12" cy="22.48" r="1"/><circle cx="15" cy="22.48" r="1"/><path d="M9.342,14.1a.767.767,0,0,0,.645.376h4.026a.766.766,0,0,0,.645-.376C15.1,13.4,13.8,10.48,12,10.48S8.9,13.4,9.342,14.1Z"/><path d="M14,8.98c.828,0,1.5-.129,1.5-.75A1.4,1.4,0,0,0,14,7.042,1.4,1.4,0,0,0,12.5,8.23C12.5,8.851,13.172,8.98,14,8.98Z"/><path d="M11.5,8.23A1.4,1.4,0,0,0,10,7.042,1.4,1.4,0,0,0,8.5,8.23c0,.621.672.75,1.5.75S11.5,8.851,11.5,8.23Z"/><path d="M6.017,13.98a.5.5,0,0,0,.492-.414c.132-.76.31-1.59.523-2.419a.134.134,0,0,1,.234-.063l.634.846a.816.816,0,0,0,1.05.15.75.75,0,0,0,.15-1.05L7.722,9.193a.259.259,0,0,1-.037-.236C8.355,7.016,9.183,5.48,10,5.48h1.25a.25.25,0,0,0,.25-.25V.277a.259.259,0,0,0-.278-.256A5.84,5.84,0,0,0,9.057.6,6.515,6.515,0,0,0,5.5,6.435V8.927a4.557,4.557,0,0,1-.364,1.784l-.5,1.169a1.506,1.506,0,0,0,1.379,2.1Z"/><path d="M12.75,5.48H14c.817,0,1.644,1.537,2.314,3.477a.256.256,0,0,1-.036.236L14.9,11.03a.75.75,0,0,0,.15,1.05.82.82,0,0,0,1.05-.15s.55-.742.63-.84a.142.142,0,0,1,.241.071c.211.825.388,1.65.52,2.405a.5.5,0,0,0,.492.414,1.506,1.506,0,0,0,1.379-2.1l-.5-1.17A4.562,4.562,0,0,1,18.5,8.925V6.435A6.515,6.515,0,0,0,14.944.6,5.85,5.85,0,0,0,12.778.021.259.259,0,0,0,12.5.277V5.23A.25.25,0,0,0,12.75,5.48Z"/></svg>